<svg width="18" height="18" viewBox="0 0 18 18" fill="none" xmlns="http://www.w3.org/2000/svg">
<path d="M11.2482 1.49976H4.49927C4.10151 1.49976 3.72004 1.65777 3.43878 1.93903C3.15752 2.22029 2.99951 2.60176 2.99951 2.99952V14.9976C2.99951 15.3954 3.15752 15.7769 3.43878 16.0581C3.72004 16.3394 4.10151 16.4974 4.49927 16.4974H13.4979C13.8956 16.4974 14.2771 16.3394 14.5583 16.0581C14.8396 15.7769 14.9976 15.3954 14.9976 14.9976V5.24916L11.2482 1.49976Z" stroke="#0F172A" stroke-width="1.49976" stroke-linecap="round" stroke-linejoin="round"/>
<path d="M10.4985 1.49976V4.49928C10.4985 4.89704 10.6565 5.27851 10.9378 5.55977C11.2191 5.84104 11.6005 5.99905 11.9983 5.99905H14.9978" stroke="#0F172A" stroke-width="1.49976" stroke-linecap="round" stroke-linejoin="round"/>
<path d="M7.49879 6.7489H5.99902" stroke="#0F172A" stroke-width="1.49976" stroke-linecap="round" stroke-linejoin="round"/>
<path d="M11.9981 9.74841H5.99902" stroke="#0F172A" stroke-width="1.49976" stroke-linecap="round" stroke-linejoin="round"/>
<path d="M11.9981 12.748H5.99902" stroke="#0F172A" stroke-width="1.49976" stroke-linecap="round" stroke-linejoin="round"/>
</svg>
